<svg xmlns="http://www.w3.org/2000/svg" xmlns:xlink="http://www.w3.org/1999/xlink" width="250" zoomAndPan="magnify" viewBox="0 0 187.5 60" height="80" preserveAspectRatio="xMidYMid meet" version="1.0"><defs><g/></defs><g fill="#1866d2" fill-opacity="1"><g transform="translate(51.610493, 40.664686)"><g><path d="M 18.078125 0 L 17.3125 -2.75 C 15.9375 -1.53125 14.726562 -0.6875 13.6875 -0.21875 C 12.65625 0.25 11.484375 0.484375 10.171875 0.484375 C 8.898438 0.484375 7.742188 0.1875 6.703125 -0.40625 C 5.671875 -1 4.863281 -1.8125 4.28125 -2.84375 C 3.707031 -3.875 3.421875 -5.035156 3.421875 -6.328125 L 3.421875 -21.0625 L 8.75 -21.0625 L 8.75 -9.359375 C 8.75 -7.660156 9.019531 -6.378906 9.5625 -5.515625 C 10.101562 -4.660156 10.882812 -4.234375 11.90625 -4.234375 C 12.757812 -4.234375 13.5625 -4.421875 14.3125 -4.796875 C 15.070312 -5.171875 15.882812 -5.773438 16.75 -6.609375 L 16.75 -21.0625 L 22.0625 -21.0625 L 22.0625 -4.6875 L 22.953125 0 Z M 18.078125 0 "/></g></g></g><g fill="#1866d2" fill-opacity="1"><g transform="translate(77.423485, 40.664686)"><g><path d="M 9.71875 0.484375 C 8.320312 0.484375 6.953125 0.289062 5.609375 -0.09375 C 4.265625 -0.488281 3 -1.050781 1.8125 -1.78125 L 1.8125 -6.8125 C 3.101562 -5.84375 4.328125 -5.128906 5.484375 -4.671875 C 6.640625 -4.222656 7.890625 -4 9.234375 -4 C 10.609375 -4 11.625 -4.171875 12.28125 -4.515625 C 12.9375 -4.867188 13.265625 -5.40625 13.265625 -6.125 C 13.265625 -6.832031 12.945312 -7.351562 12.3125 -7.6875 C 11.6875 -8.019531 10.6875 -8.347656 9.3125 -8.671875 C 7.8125 -9.046875 6.585938 -9.425781 5.640625 -9.8125 C 4.703125 -10.207031 3.890625 -10.847656 3.203125 -11.734375 C 2.515625 -12.628906 2.171875 -13.828125 2.171875 -15.328125 C 2.171875 -17.210938 2.941406 -18.71875 4.484375 -19.84375 C 6.035156 -20.976562 8.117188 -21.546875 10.734375 -21.546875 C 11.992188 -21.546875 13.160156 -21.40625 14.234375 -21.125 C 15.316406 -20.84375 16.421875 -20.378906 17.546875 -19.734375 L 17.546875 -14.8125 C 16.390625 -15.613281 15.3125 -16.1875 14.3125 -16.53125 C 13.320312 -16.882812 12.265625 -17.0625 11.140625 -17.0625 C 9.898438 -17.0625 8.941406 -16.90625 8.265625 -16.59375 C 7.597656 -16.289062 7.265625 -15.84375 7.265625 -15.25 C 7.265625 -14.65625 7.550781 -14.21875 8.125 -13.9375 C 8.707031 -13.65625 9.628906 -13.367188 10.890625 -13.078125 C 12.398438 -12.753906 13.65625 -12.382812 14.65625 -11.96875 C 15.664062 -11.550781 16.535156 -10.875 17.265625 -9.9375 C 17.992188 -9.007812 18.359375 -7.726562 18.359375 -6.09375 C 18.359375 -4.832031 17.992188 -3.695312 17.265625 -2.6875 C 16.535156 -1.675781 15.507812 -0.894531 14.1875 -0.34375 C 12.875 0.207031 11.382812 0.484375 9.71875 0.484375 Z M 9.71875 0.484375 "/></g></g></g><g fill="#1866d2" fill-opacity="1"><g transform="translate(97.589887, 40.664686)"><g><path d="M 9.484375 -21.0625 L 14.328125 -21.0625 L 14.328125 -17.109375 L 9.484375 -17.109375 L 9.484375 -6.9375 C 9.484375 -4.894531 10.265625 -3.875 11.828125 -3.875 C 12.546875 -3.875 13.390625 -4.128906 14.359375 -4.640625 L 14.359375 -0.234375 C 13.691406 0.00390625 13.066406 0.179688 12.484375 0.296875 C 11.910156 0.421875 11.257812 0.484375 10.53125 0.484375 C 6.28125 0.484375 4.15625 -1.988281 4.15625 -6.9375 L 4.15625 -17.109375 L 1.09375 -17.109375 L 1.09375 -21.0625 L 4.15625 -21.0625 L 4.15625 -26.703125 L 9.484375 -28.5625 Z M 9.484375 -21.0625 "/></g></g></g><g fill="#1866d2" fill-opacity="1"><g transform="translate(113.723002, 40.664686)"><g><path d="M 16.453125 0 L 15.9375 -2.546875 C 14.03125 -0.523438 11.726562 0.484375 9.03125 0.484375 C 6.90625 0.484375 5.175781 -0.0664062 3.84375 -1.171875 C 2.519531 -2.273438 1.859375 -3.726562 1.859375 -5.53125 C 1.859375 -7.863281 2.722656 -9.679688 4.453125 -10.984375 C 6.191406 -12.296875 8.703125 -12.953125 11.984375 -12.953125 C 13.160156 -12.953125 14.34375 -12.894531 15.53125 -12.78125 L 15.53125 -13.5625 C 15.53125 -14.738281 15.191406 -15.613281 14.515625 -16.1875 C 13.847656 -16.769531 12.789062 -17.0625 11.34375 -17.0625 C 9.914062 -17.0625 8.585938 -16.828125 7.359375 -16.359375 C 6.140625 -15.890625 4.816406 -15.128906 3.390625 -14.078125 L 3.390625 -18.84375 C 4.628906 -19.78125 5.921875 -20.460938 7.265625 -20.890625 C 8.609375 -21.328125 10.085938 -21.546875 11.703125 -21.546875 C 14.679688 -21.546875 16.957031 -20.90625 18.53125 -19.625 C 20.101562 -18.34375 20.890625 -16.484375 20.890625 -14.046875 L 20.890625 -4.6875 L 21.78125 0 Z M 7.1875 -5.9375 C 7.1875 -4.375 8.070312 -3.59375 9.84375 -3.59375 C 10.863281 -3.59375 11.832031 -3.800781 12.75 -4.21875 C 13.664062 -4.632812 14.59375 -5.300781 15.53125 -6.21875 L 15.53125 -9.078125 L 11.65625 -9.078125 C 10.09375 -9.078125 8.957031 -8.847656 8.25 -8.390625 C 7.539062 -7.929688 7.1875 -7.113281 7.1875 -5.9375 Z M 7.1875 -5.9375 "/></g></g></g><g fill="#1866d2" fill-opacity="1"><g transform="translate(137.116025, 40.664686)"><g><path d="M 13.234375 0.484375 C 11.023438 0.484375 9.09375 0.0351562 7.4375 -0.859375 C 5.789062 -1.765625 4.519531 -3.035156 3.625 -4.671875 C 2.738281 -6.316406 2.296875 -8.242188 2.296875 -10.453125 C 2.296875 -12.648438 2.753906 -14.585938 3.671875 -16.265625 C 4.585938 -17.953125 5.867188 -19.253906 7.515625 -20.171875 C 9.171875 -21.085938 11.078125 -21.546875 13.234375 -21.546875 C 15.648438 -21.546875 17.691406 -21.046875 19.359375 -20.046875 L 19.359375 -15.375 L 19.203125 -15.375 C 18.316406 -15.90625 17.351562 -16.304688 16.3125 -16.578125 C 15.28125 -16.847656 14.320312 -16.984375 13.4375 -16.984375 C 11.582031 -16.984375 10.179688 -16.429688 9.234375 -15.328125 C 8.296875 -14.222656 7.828125 -12.597656 7.828125 -10.453125 C 7.828125 -6.203125 9.671875 -4.078125 13.359375 -4.078125 C 14.328125 -4.078125 15.3125 -4.226562 16.3125 -4.53125 C 17.320312 -4.84375 18.285156 -5.28125 19.203125 -5.84375 L 19.359375 -5.84375 L 19.359375 -1.09375 C 17.640625 -0.0390625 15.597656 0.484375 13.234375 0.484375 Z M 13.234375 0.484375 "/></g></g></g><g fill="#1866d2" fill-opacity="1"><g transform="translate(158.895728, 40.664686)"><g><path d="M 15.125 -21.546875 C 17.25 -21.546875 18.960938 -20.921875 20.265625 -19.671875 C 21.578125 -18.421875 22.234375 -16.769531 22.234375 -14.71875 L 22.234375 0 L 16.90625 0 L 16.90625 -11.703125 C 16.90625 -13.523438 16.628906 -14.832031 16.078125 -15.625 C 15.523438 -16.425781 14.617188 -16.828125 13.359375 -16.828125 C 11.929688 -16.828125 10.453125 -16.03125 8.921875 -14.4375 L 8.921875 0 L 3.59375 0 L 3.59375 -30.421875 L 8.921875 -30.421875 L 8.921875 -18.875 C 9.960938 -19.820312 10.972656 -20.503906 11.953125 -20.921875 C 12.941406 -21.335938 14 -21.546875 15.125 -21.546875 Z M 15.125 -21.546875 "/></g></g></g><g fill="#404141" fill-opacity="1"><g transform="translate(55.741456, 51.213299)"><g><path d="M 2.0625 -1.75 C 2.1875 -1.726562 2.300781 -1.675781 2.40625 -1.59375 C 2.507812 -1.507812 2.585938 -1.40625 2.640625 -1.28125 C 2.703125 -1.164062 2.734375 -1.039062 2.734375 -0.90625 C 2.734375 -0.738281 2.691406 -0.582031 2.609375 -0.4375 C 2.523438 -0.300781 2.398438 -0.191406 2.234375 -0.109375 C 2.066406 -0.0351562 1.867188 0 1.640625 0 L 0.375 0 L 0.375 -3.390625 L 1.59375 -3.390625 C 1.820312 -3.390625 2.015625 -3.347656 2.171875 -3.265625 C 2.335938 -3.191406 2.457031 -3.085938 2.53125 -2.953125 C 2.613281 -2.828125 2.65625 -2.6875 2.65625 -2.53125 C 2.65625 -2.320312 2.601562 -2.148438 2.5 -2.015625 C 2.394531 -1.890625 2.25 -1.800781 2.0625 -1.75 Z M 0.8125 -1.921875 L 1.5625 -1.921875 C 1.769531 -1.921875 1.929688 -1.96875 2.046875 -2.0625 C 2.160156 -2.164062 2.21875 -2.300781 2.21875 -2.46875 C 2.21875 -2.644531 2.160156 -2.78125 2.046875 -2.875 C 1.929688 -2.96875 1.765625 -3.015625 1.546875 -3.015625 L 0.8125 -3.015625 Z M 1.59375 -0.359375 C 1.8125 -0.359375 1.984375 -0.410156 2.109375 -0.515625 C 2.234375 -0.617188 2.296875 -0.765625 2.296875 -0.953125 C 2.296875 -1.140625 2.226562 -1.285156 2.09375 -1.390625 C 1.96875 -1.503906 1.796875 -1.5625 1.578125 -1.5625 L 0.8125 -1.5625 L 0.8125 -0.359375 Z M 1.59375 -0.359375 "/></g></g></g><g fill="#404141" fill-opacity="1"><g transform="translate(58.720298, 51.213299)"><g><path d="M 2.796875 -1.4375 C 2.796875 -1.351562 2.796875 -1.265625 2.796875 -1.171875 L 0.65625 -1.171875 C 0.675781 -0.898438 0.765625 -0.691406 0.921875 -0.546875 C 1.085938 -0.398438 1.289062 -0.328125 1.53125 -0.328125 C 1.71875 -0.328125 1.875 -0.367188 2 -0.453125 C 2.132812 -0.546875 2.226562 -0.671875 2.28125 -0.828125 L 2.75 -0.828125 C 2.675781 -0.566406 2.53125 -0.351562 2.3125 -0.1875 C 2.101562 -0.03125 1.84375 0.046875 1.53125 0.046875 C 1.269531 0.046875 1.039062 -0.0078125 0.84375 -0.125 C 0.644531 -0.238281 0.488281 -0.398438 0.375 -0.609375 C 0.257812 -0.816406 0.203125 -1.0625 0.203125 -1.34375 C 0.203125 -1.613281 0.257812 -1.851562 0.375 -2.0625 C 0.488281 -2.269531 0.644531 -2.425781 0.84375 -2.53125 C 1.039062 -2.644531 1.269531 -2.703125 1.53125 -2.703125 C 1.78125 -2.703125 2 -2.644531 2.1875 -2.53125 C 2.382812 -2.425781 2.535156 -2.273438 2.640625 -2.078125 C 2.742188 -1.890625 2.796875 -1.675781 2.796875 -1.4375 Z M 2.34375 -1.53125 C 2.34375 -1.695312 2.304688 -1.835938 2.234375 -1.953125 C 2.160156 -2.078125 2.054688 -2.171875 1.921875 -2.234375 C 1.796875 -2.296875 1.65625 -2.328125 1.5 -2.328125 C 1.28125 -2.328125 1.09375 -2.253906 0.9375 -2.109375 C 0.78125 -1.972656 0.691406 -1.78125 0.671875 -1.53125 Z M 2.34375 -1.53125 "/></g></g></g><g fill="#404141" fill-opacity="1"><g transform="translate(61.733155, 51.213299)"><g><path d="M 0.203125 -1.34375 C 0.203125 -1.613281 0.257812 -1.847656 0.375 -2.046875 C 0.488281 -2.253906 0.640625 -2.414062 0.828125 -2.53125 C 1.023438 -2.644531 1.25 -2.703125 1.5 -2.703125 C 1.832031 -2.703125 2.101562 -2.625 2.3125 -2.46875 C 2.53125 -2.3125 2.671875 -2.09375 2.734375 -1.8125 L 2.265625 -1.8125 C 2.210938 -1.96875 2.117188 -2.09375 1.984375 -2.1875 C 1.859375 -2.28125 1.695312 -2.328125 1.5 -2.328125 C 1.25 -2.328125 1.046875 -2.238281 0.890625 -2.0625 C 0.734375 -1.894531 0.65625 -1.65625 0.65625 -1.34375 C 0.65625 -1.019531 0.734375 -0.769531 0.890625 -0.59375 C 1.046875 -0.414062 1.25 -0.328125 1.5 -0.328125 C 1.695312 -0.328125 1.859375 -0.375 1.984375 -0.46875 C 2.117188 -0.5625 2.210938 -0.691406 2.265625 -0.859375 L 2.734375 -0.859375 C 2.660156 -0.585938 2.515625 -0.367188 2.296875 -0.203125 C 2.085938 -0.0351562 1.820312 0.046875 1.5 0.046875 C 1.25 0.046875 1.023438 -0.0078125 0.828125 -0.125 C 0.640625 -0.238281 0.488281 -0.398438 0.375 -0.609375 C 0.257812 -0.816406 0.203125 -1.0625 0.203125 -1.34375 Z M 0.203125 -1.34375 "/></g></g></g><g fill="#404141" fill-opacity="1"><g transform="translate(64.682844, 51.213299)"><g><path d="M 1.53125 0.046875 C 1.28125 0.046875 1.050781 -0.0078125 0.84375 -0.125 C 0.644531 -0.238281 0.488281 -0.398438 0.375 -0.609375 C 0.257812 -0.816406 0.203125 -1.0625 0.203125 -1.34375 C 0.203125 -1.613281 0.257812 -1.851562 0.375 -2.0625 C 0.5 -2.269531 0.660156 -2.425781 0.859375 -2.53125 C 1.066406 -2.644531 1.300781 -2.703125 1.5625 -2.703125 C 1.8125 -2.703125 2.035156 -2.644531 2.234375 -2.53125 C 2.441406 -2.425781 2.601562 -2.269531 2.71875 -2.0625 C 2.84375 -1.851562 2.90625 -1.613281 2.90625 -1.34375 C 2.90625 -1.0625 2.84375 -0.816406 2.71875 -0.609375 C 2.59375 -0.398438 2.425781 -0.238281 2.21875 -0.125 C 2.019531 -0.0078125 1.789062 0.046875 1.53125 0.046875 Z M 1.53125 -0.34375 C 1.695312 -0.34375 1.847656 -0.378906 1.984375 -0.453125 C 2.117188 -0.523438 2.226562 -0.632812 2.3125 -0.78125 C 2.40625 -0.9375 2.453125 -1.125 2.453125 -1.34375 C 2.453125 -1.550781 2.410156 -1.726562 2.328125 -1.875 C 2.242188 -2.03125 2.128906 -2.144531 1.984375 -2.21875 C 1.847656 -2.289062 1.703125 -2.328125 1.546875 -2.328125 C 1.390625 -2.328125 1.242188 -2.289062 1.109375 -2.21875 C 0.972656 -2.144531 0.863281 -2.03125 0.78125 -1.875 C 0.695312 -1.726562 0.65625 -1.550781 0.65625 -1.34375 C 0.65625 -1.125 0.695312 -0.9375 0.78125 -0.78125 C 0.863281 -0.632812 0.96875 -0.523438 1.09375 -0.453125 C 1.226562 -0.378906 1.375 -0.34375 1.53125 -0.34375 Z M 1.53125 -0.34375 "/></g></g></g><g fill="#404141" fill-opacity="1"><g transform="translate(67.792892, 51.213299)"><g><path d="M 3.578125 -2.71875 C 3.785156 -2.71875 3.96875 -2.671875 4.125 -2.578125 C 4.289062 -2.492188 4.421875 -2.363281 4.515625 -2.1875 C 4.609375 -2.019531 4.65625 -1.8125 4.65625 -1.5625 L 4.65625 0 L 4.21875 0 L 4.21875 -1.5 C 4.21875 -1.769531 4.148438 -1.972656 4.015625 -2.109375 C 3.890625 -2.253906 3.710938 -2.328125 3.484375 -2.328125 C 3.253906 -2.328125 3.070312 -2.253906 2.9375 -2.109375 C 2.800781 -1.960938 2.734375 -1.75 2.734375 -1.46875 L 2.734375 0 L 2.296875 0 L 2.296875 -1.5 C 2.296875 -1.769531 2.226562 -1.972656 2.09375 -2.109375 C 1.96875 -2.253906 1.789062 -2.328125 1.5625 -2.328125 C 1.332031 -2.328125 1.148438 -2.253906 1.015625 -2.109375 C 0.878906 -1.960938 0.8125 -1.75 0.8125 -1.46875 L 0.8125 0 L 0.375 0 L 0.375 -2.65625 L 0.8125 -2.65625 L 0.8125 -2.28125 C 0.90625 -2.414062 1.023438 -2.519531 1.171875 -2.59375 C 1.316406 -2.675781 1.476562 -2.71875 1.65625 -2.71875 C 1.882812 -2.71875 2.082031 -2.664062 2.25 -2.5625 C 2.414062 -2.457031 2.546875 -2.3125 2.640625 -2.125 C 2.710938 -2.3125 2.832031 -2.457031 3 -2.5625 C 3.175781 -2.664062 3.367188 -2.71875 3.578125 -2.71875 Z M 3.578125 -2.71875 "/></g></g></g><g fill="#404141" fill-opacity="1"><g transform="translate(72.798128, 51.213299)"><g><path d="M 2.796875 -1.4375 C 2.796875 -1.351562 2.796875 -1.265625 2.796875 -1.171875 L 0.65625 -1.171875 C 0.675781 -0.898438 0.765625 -0.691406 0.921875 -0.546875 C 1.085938 -0.398438 1.289062 -0.328125 1.53125 -0.328125 C 1.71875 -0.328125 1.875 -0.367188 2 -0.453125 C 2.132812 -0.546875 2.226562 -0.671875 2.28125 -0.828125 L 2.75 -0.828125 C 2.675781 -0.566406 2.53125 -0.351562 2.3125 -0.1875 C 2.101562 -0.03125 1.84375 0.046875 1.53125 0.046875 C 1.269531 0.046875 1.039062 -0.0078125 0.84375 -0.125 C 0.644531 -0.238281 0.488281 -0.398438 0.375 -0.609375 C 0.257812 -0.816406 0.203125 -1.0625 0.203125 -1.34375 C 0.203125 -1.613281 0.257812 -1.851562 0.375 -2.0625 C 0.488281 -2.269531 0.644531 -2.425781 0.84375 -2.53125 C 1.039062 -2.644531 1.269531 -2.703125 1.53125 -2.703125 C 1.78125 -2.703125 2 -2.644531 2.1875 -2.53125 C 2.382812 -2.425781 2.535156 -2.273438 2.640625 -2.078125 C 2.742188 -1.890625 2.796875 -1.675781 2.796875 -1.4375 Z M 2.34375 -1.53125 C 2.34375 -1.695312 2.304688 -1.835938 2.234375 -1.953125 C 2.160156 -2.078125 2.054688 -2.171875 1.921875 -2.234375 C 1.796875 -2.296875 1.65625 -2.328125 1.5 -2.328125 C 1.28125 -2.328125 1.09375 -2.253906 0.9375 -2.109375 C 0.78125 -1.972656 0.691406 -1.78125 0.671875 -1.53125 Z M 2.34375 -1.53125 "/></g></g></g><g fill="#404141" fill-opacity="1"><g transform="translate(75.810986, 51.213299)"><g/></g></g><g fill="#404141" fill-opacity="1"><g transform="translate(77.10846, 51.213299)"><g><path d="M 0.203125 -1.34375 C 0.203125 -1.613281 0.257812 -1.847656 0.375 -2.046875 C 0.488281 -2.253906 0.640625 -2.414062 0.828125 -2.53125 C 1.023438 -2.644531 1.238281 -2.703125 1.46875 -2.703125 C 1.707031 -2.703125 1.910156 -2.648438 2.078125 -2.546875 C 2.253906 -2.453125 2.382812 -2.328125 2.46875 -2.171875 L 2.46875 -2.65625 L 2.90625 -2.65625 L 2.90625 0 L 2.46875 0 L 2.46875 -0.5 C 2.375 -0.34375 2.238281 -0.210938 2.0625 -0.109375 C 1.894531 -0.00390625 1.695312 0.046875 1.46875 0.046875 C 1.226562 0.046875 1.015625 -0.0078125 0.828125 -0.125 C 0.640625 -0.25 0.488281 -0.414062 0.375 -0.625 C 0.257812 -0.832031 0.203125 -1.070312 0.203125 -1.34375 Z M 2.46875 -1.34375 C 2.46875 -1.539062 2.425781 -1.710938 2.34375 -1.859375 C 2.257812 -2.003906 2.148438 -2.117188 2.015625 -2.203125 C 1.878906 -2.285156 1.726562 -2.328125 1.5625 -2.328125 C 1.394531 -2.328125 1.242188 -2.285156 1.109375 -2.203125 C 0.972656 -2.128906 0.863281 -2.015625 0.78125 -1.859375 C 0.695312 -1.710938 0.65625 -1.539062 0.65625 -1.34375 C 0.65625 -1.132812 0.695312 -0.953125 0.78125 -0.796875 C 0.863281 -0.648438 0.972656 -0.535156 1.109375 -0.453125 C 1.242188 -0.378906 1.394531 -0.34375 1.5625 -0.34375 C 1.726562 -0.34375 1.878906 -0.378906 2.015625 -0.453125 C 2.148438 -0.535156 2.257812 -0.648438 2.34375 -0.796875 C 2.425781 -0.953125 2.46875 -1.132812 2.46875 -1.34375 Z M 2.46875 -1.34375 "/></g></g></g><g fill="#404141" fill-opacity="1"><g transform="translate(80.39345, 51.213299)"><g><path d="M 1.671875 -2.71875 C 1.992188 -2.71875 2.253906 -2.617188 2.453125 -2.421875 C 2.660156 -2.222656 2.765625 -1.9375 2.765625 -1.5625 L 2.765625 0 L 2.328125 0 L 2.328125 -1.5 C 2.328125 -1.769531 2.257812 -1.972656 2.125 -2.109375 C 1.988281 -2.253906 1.804688 -2.328125 1.578125 -2.328125 C 1.347656 -2.328125 1.160156 -2.253906 1.015625 -2.109375 C 0.878906 -1.960938 0.8125 -1.75 0.8125 -1.46875 L 0.8125 0 L 0.375 0 L 0.375 -2.65625 L 0.8125 -2.65625 L 0.8125 -2.28125 C 0.90625 -2.414062 1.023438 -2.519531 1.171875 -2.59375 C 1.328125 -2.675781 1.492188 -2.71875 1.671875 -2.71875 Z M 1.671875 -2.71875 "/></g></g></g><g fill="#404141" fill-opacity="1"><g transform="translate(83.503498, 51.213299)"><g/></g></g><g fill="#404141" fill-opacity="1"><g transform="translate(84.800972, 51.213299)"><g><path d="M 0.203125 -1.34375 C 0.203125 -1.613281 0.257812 -1.847656 0.375 -2.046875 C 0.488281 -2.253906 0.640625 -2.414062 0.828125 -2.53125 C 1.023438 -2.644531 1.238281 -2.703125 1.46875 -2.703125 C 1.707031 -2.703125 1.910156 -2.648438 2.078125 -2.546875 C 2.253906 -2.453125 2.382812 -2.328125 2.46875 -2.171875 L 2.46875 -2.65625 L 2.90625 -2.65625 L 2.90625 0 L 2.46875 0 L 2.46875 -0.5 C 2.375 -0.34375 2.238281 -0.210938 2.0625 -0.109375 C 1.894531 -0.00390625 1.695312 0.046875 1.46875 0.046875 C 1.226562 0.046875 1.015625 -0.0078125 0.828125 -0.125 C 0.640625 -0.25 0.488281 -0.414062 0.375 -0.625 C 0.257812 -0.832031 0.203125 -1.070312 0.203125 -1.34375 Z M 2.46875 -1.34375 C 2.46875 -1.539062 2.425781 -1.710938 2.34375 -1.859375 C 2.257812 -2.003906 2.148438 -2.117188 2.015625 -2.203125 C 1.878906 -2.285156 1.726562 -2.328125 1.5625 -2.328125 C 1.394531 -2.328125 1.242188 -2.285156 1.109375 -2.203125 C 0.972656 -2.128906 0.863281 -2.015625 0.78125 -1.859375 C 0.695312 -1.710938 0.65625 -1.539062 0.65625 -1.34375 C 0.65625 -1.132812 0.695312 -0.953125 0.78125 -0.796875 C 0.863281 -0.648438 0.972656 -0.535156 1.109375 -0.453125 C 1.242188 -0.378906 1.394531 -0.34375 1.5625 -0.34375 C 1.726562 -0.34375 1.878906 -0.378906 2.015625 -0.453125 C 2.148438 -0.535156 2.257812 -0.648438 2.34375 -0.796875 C 2.425781 -0.953125 2.46875 -1.132812 2.46875 -1.34375 Z M 2.46875 -1.34375 "/></g></g></g><g fill="#404141" fill-opacity="1"><g transform="translate(88.085962, 51.213299)"><g><path d="M 0.203125 -1.34375 C 0.203125 -1.613281 0.257812 -1.847656 0.375 -2.046875 C 0.488281 -2.253906 0.640625 -2.414062 0.828125 -2.53125 C 1.023438 -2.644531 1.25 -2.703125 1.5 -2.703125 C 1.832031 -2.703125 2.101562 -2.625 2.3125 -2.46875 C 2.53125 -2.3125 2.671875 -2.09375 2.734375 -1.8125 L 2.265625 -1.8125 C 2.210938 -1.96875 2.117188 -2.09375 1.984375 -2.1875 C 1.859375 -2.28125 1.695312 -2.328125 1.5 -2.328125 C 1.25 -2.328125 1.046875 -2.238281 0.890625 -2.0625 C 0.734375 -1.894531 0.65625 -1.65625 0.65625 -1.34375 C 0.65625 -1.019531 0.734375 -0.769531 0.890625 -0.59375 C 1.046875 -0.414062 1.25 -0.328125 1.5 -0.328125 C 1.695312 -0.328125 1.859375 -0.375 1.984375 -0.46875 C 2.117188 -0.5625 2.210938 -0.691406 2.265625 -0.859375 L 2.734375 -0.859375 C 2.660156 -0.585938 2.515625 -0.367188 2.296875 -0.203125 C 2.085938 -0.0351562 1.820312 0.046875 1.5 0.046875 C 1.25 0.046875 1.023438 -0.0078125 0.828125 -0.125 C 0.640625 -0.238281 0.488281 -0.398438 0.375 -0.609375 C 0.257812 -0.816406 0.203125 -1.0625 0.203125 -1.34375 Z M 0.203125 -1.34375 "/></g></g></g><g fill="#404141" fill-opacity="1"><g transform="translate(91.035651, 51.213299)"><g><path d="M 0.90625 -2.296875 L 0.90625 -0.734375 C 0.90625 -0.597656 0.929688 -0.503906 0.984375 -0.453125 C 1.046875 -0.398438 1.144531 -0.375 1.28125 -0.375 L 1.609375 -0.375 L 1.609375 0 L 1.203125 0 C 0.960938 0 0.78125 -0.0546875 0.65625 -0.171875 C 0.53125 -0.285156 0.46875 -0.472656 0.46875 -0.734375 L 0.46875 -2.296875 L 0.125 -2.296875 L 0.125 -2.65625 L 0.46875 -2.65625 L 0.46875 -3.328125 L 0.90625 -3.328125 L 0.90625 -2.65625 L 1.609375 -2.65625 L 1.609375 -2.296875 Z M 0.90625 -2.296875 "/></g></g></g><g fill="#404141" fill-opacity="1"><g transform="translate(92.804489, 51.213299)"><g><path d="M 1.53125 0.046875 C 1.28125 0.046875 1.050781 -0.0078125 0.84375 -0.125 C 0.644531 -0.238281 0.488281 -0.398438 0.375 -0.609375 C 0.257812 -0.816406 0.203125 -1.0625 0.203125 -1.34375 C 0.203125 -1.613281 0.257812 -1.851562 0.375 -2.0625 C 0.5 -2.269531 0.660156 -2.425781 0.859375 -2.53125 C 1.066406 -2.644531 1.300781 -2.703125 1.5625 -2.703125 C 1.8125 -2.703125 2.035156 -2.644531 2.234375 -2.53125 C 2.441406 -2.425781 2.601562 -2.269531 2.71875 -2.0625 C 2.84375 -1.851562 2.90625 -1.613281 2.90625 -1.34375 C 2.90625 -1.0625 2.84375 -0.816406 2.71875 -0.609375 C 2.59375 -0.398438 2.425781 -0.238281 2.21875 -0.125 C 2.019531 -0.0078125 1.789062 0.046875 1.53125 0.046875 Z M 1.53125 -0.34375 C 1.695312 -0.34375 1.847656 -0.378906 1.984375 -0.453125 C 2.117188 -0.523438 2.226562 -0.632812 2.3125 -0.78125 C 2.40625 -0.9375 2.453125 -1.125 2.453125 -1.34375 C 2.453125 -1.550781 2.410156 -1.726562 2.328125 -1.875 C 2.242188 -2.03125 2.128906 -2.144531 1.984375 -2.21875 C 1.847656 -2.289062 1.703125 -2.328125 1.546875 -2.328125 C 1.390625 -2.328125 1.242188 -2.289062 1.109375 -2.21875 C 0.972656 -2.144531 0.863281 -2.03125 0.78125 -1.875 C 0.695312 -1.726562 0.65625 -1.550781 0.65625 -1.34375 C 0.65625 -1.125 0.695312 -0.9375 0.78125 -0.78125 C 0.863281 -0.632812 0.96875 -0.523438 1.09375 -0.453125 C 1.226562 -0.378906 1.375 -0.34375 1.53125 -0.34375 Z M 1.53125 -0.34375 "/></g></g></g><g fill="#404141" fill-opacity="1"><g transform="translate(95.914537, 51.213299)"><g><path d="M 0.8125 -2.234375 C 0.894531 -2.378906 1.003906 -2.492188 1.140625 -2.578125 C 1.285156 -2.671875 1.460938 -2.71875 1.671875 -2.71875 L 1.671875 -2.25 L 1.5625 -2.25 C 1.0625 -2.25 0.8125 -1.984375 0.8125 -1.453125 L 0.8125 0 L 0.375 0 L 0.375 -2.65625 L 0.8125 -2.65625 Z M 0.8125 -2.234375 "/></g></g></g><g fill="#404141" fill-opacity="1"><g transform="translate(97.727111, 51.213299)"><g/></g></g><g fill="#404141" fill-opacity="1"><g transform="translate(99.024585, 51.213299)"><g><path d="M 1.53125 0.046875 C 1.28125 0.046875 1.050781 -0.0078125 0.84375 -0.125 C 0.644531 -0.238281 0.488281 -0.398438 0.375 -0.609375 C 0.257812 -0.816406 0.203125 -1.0625 0.203125 -1.34375 C 0.203125 -1.613281 0.257812 -1.851562 0.375 -2.0625 C 0.5 -2.269531 0.660156 -2.425781 0.859375 -2.53125 C 1.066406 -2.644531 1.300781 -2.703125 1.5625 -2.703125 C 1.8125 -2.703125 2.035156 -2.644531 2.234375 -2.53125 C 2.441406 -2.425781 2.601562 -2.269531 2.71875 -2.0625 C 2.84375 -1.851562 2.90625 -1.613281 2.90625 -1.34375 C 2.90625 -1.0625 2.84375 -0.816406 2.71875 -0.609375 C 2.59375 -0.398438 2.425781 -0.238281 2.21875 -0.125 C 2.019531 -0.0078125 1.789062 0.046875 1.53125 0.046875 Z M 1.53125 -0.34375 C 1.695312 -0.34375 1.847656 -0.378906 1.984375 -0.453125 C 2.117188 -0.523438 2.226562 -0.632812 2.3125 -0.78125 C 2.40625 -0.9375 2.453125 -1.125 2.453125 -1.34375 C 2.453125 -1.550781 2.410156 -1.726562 2.328125 -1.875 C 2.242188 -2.03125 2.128906 -2.144531 1.984375 -2.21875 C 1.847656 -2.289062 1.703125 -2.328125 1.546875 -2.328125 C 1.390625 -2.328125 1.242188 -2.289062 1.109375 -2.21875 C 0.972656 -2.144531 0.863281 -2.03125 0.78125 -1.875 C 0.695312 -1.726562 0.65625 -1.550781 0.65625 -1.34375 C 0.65625 -1.125 0.695312 -0.9375 0.78125 -0.78125 C 0.863281 -0.632812 0.96875 -0.523438 1.09375 -0.453125 C 1.226562 -0.378906 1.375 -0.34375 1.53125 -0.34375 Z M 1.53125 -0.34375 "/></g></g></g><g fill="#404141" fill-opacity="1"><g transform="translate(102.134633, 51.213299)"><g><path d="M 1.453125 -2.296875 L 0.90625 -2.296875 L 0.90625 0 L 0.453125 0 L 0.453125 -2.296875 L 0.109375 -2.296875 L 0.109375 -2.65625 L 0.453125 -2.65625 L 0.453125 -2.859375 C 0.453125 -3.148438 0.53125 -3.363281 0.6875 -3.5 C 0.84375 -3.644531 1.085938 -3.71875 1.421875 -3.71875 L 1.421875 -3.34375 C 1.234375 -3.34375 1.097656 -3.300781 1.015625 -3.21875 C 0.941406 -3.144531 0.90625 -3.023438 0.90625 -2.859375 L 0.90625 -2.65625 L 1.453125 -2.65625 Z M 1.453125 -2.296875 "/></g></g></g><g fill="#404141" fill-opacity="1"><g transform="translate(103.733393, 51.213299)"><g/></g></g><g fill="#404141" fill-opacity="1"><g transform="translate(105.030867, 51.213299)"><g><path d="M 2.671875 -2.65625 L 1.0625 1.25 L 0.609375 1.25 L 1.125 -0.03125 L 0.0625 -2.65625 L 0.546875 -2.65625 L 1.390625 -0.5 L 2.21875 -2.65625 Z M 2.671875 -2.65625 "/></g></g></g><g fill="#404141" fill-opacity="1"><g transform="translate(107.766736, 51.213299)"><g><path d="M 1.53125 0.046875 C 1.28125 0.046875 1.050781 -0.0078125 0.84375 -0.125 C 0.644531 -0.238281 0.488281 -0.398438 0.375 -0.609375 C 0.257812 -0.816406 0.203125 -1.0625 0.203125 -1.34375 C 0.203125 -1.613281 0.257812 -1.851562 0.375 -2.0625 C 0.5 -2.269531 0.660156 -2.425781 0.859375 -2.53125 C 1.066406 -2.644531 1.300781 -2.703125 1.5625 -2.703125 C 1.8125 -2.703125 2.035156 -2.644531 2.234375 -2.53125 C 2.441406 -2.425781 2.601562 -2.269531 2.71875 -2.0625 C 2.84375 -1.851562 2.90625 -1.613281 2.90625 -1.34375 C 2.90625 -1.0625 2.84375 -0.816406 2.71875 -0.609375 C 2.59375 -0.398438 2.425781 -0.238281 2.21875 -0.125 C 2.019531 -0.0078125 1.789062 0.046875 1.53125 0.046875 Z M 1.53125 -0.34375 C 1.695312 -0.34375 1.847656 -0.378906 1.984375 -0.453125 C 2.117188 -0.523438 2.226562 -0.632812 2.3125 -0.78125 C 2.40625 -0.9375 2.453125 -1.125 2.453125 -1.34375 C 2.453125 -1.550781 2.410156 -1.726562 2.328125 -1.875 C 2.242188 -2.03125 2.128906 -2.144531 1.984375 -2.21875 C 1.847656 -2.289062 1.703125 -2.328125 1.546875 -2.328125 C 1.390625 -2.328125 1.242188 -2.289062 1.109375 -2.21875 C 0.972656 -2.144531 0.863281 -2.03125 0.78125 -1.875 C 0.695312 -1.726562 0.65625 -1.550781 0.65625 -1.34375 C 0.65625 -1.125 0.695312 -0.9375 0.78125 -0.78125 C 0.863281 -0.632812 0.96875 -0.523438 1.09375 -0.453125 C 1.226562 -0.378906 1.375 -0.34375 1.53125 -0.34375 Z M 1.53125 -0.34375 "/></g></g></g><g fill="#404141" fill-opacity="1"><g transform="translate(110.876784, 51.213299)"><g><path d="M 2.734375 -2.65625 L 2.734375 0 L 2.296875 0 L 2.296875 -0.390625 C 2.210938 -0.253906 2.09375 -0.148438 1.9375 -0.078125 C 1.789062 -0.00390625 1.625 0.03125 1.4375 0.03125 C 1.226562 0.03125 1.039062 -0.0078125 0.875 -0.09375 C 0.71875 -0.175781 0.585938 -0.300781 0.484375 -0.46875 C 0.390625 -0.644531 0.34375 -0.859375 0.34375 -1.109375 L 0.34375 -2.65625 L 0.78125 -2.65625 L 0.78125 -1.15625 C 0.78125 -0.894531 0.847656 -0.691406 0.984375 -0.546875 C 1.117188 -0.410156 1.300781 -0.34375 1.53125 -0.34375 C 1.769531 -0.34375 1.957031 -0.414062 2.09375 -0.5625 C 2.226562 -0.707031 2.296875 -0.921875 2.296875 -1.203125 L 2.296875 -2.65625 Z M 2.734375 -2.65625 "/></g></g></g><g fill="#404141" fill-opacity="1"><g transform="translate(113.986832, 51.213299)"><g><path d="M 0.8125 -2.234375 C 0.894531 -2.378906 1.003906 -2.492188 1.140625 -2.578125 C 1.285156 -2.671875 1.460938 -2.71875 1.671875 -2.71875 L 1.671875 -2.25 L 1.5625 -2.25 C 1.0625 -2.25 0.8125 -1.984375 0.8125 -1.453125 L 0.8125 0 L 0.375 0 L 0.375 -2.65625 L 0.8125 -2.65625 Z M 0.8125 -2.234375 "/></g></g></g><g fill="#404141" fill-opacity="1"><g transform="translate(115.799406, 51.213299)"><g/></g></g><g fill="#404141" fill-opacity="1"><g transform="translate(117.09688, 51.213299)"><g><path d="M 1.453125 -2.296875 L 0.90625 -2.296875 L 0.90625 0 L 0.453125 0 L 0.453125 -2.296875 L 0.109375 -2.296875 L 0.109375 -2.65625 L 0.453125 -2.65625 L 0.453125 -2.859375 C 0.453125 -3.148438 0.53125 -3.363281 0.6875 -3.5 C 0.84375 -3.644531 1.085938 -3.71875 1.421875 -3.71875 L 1.421875 -3.34375 C 1.234375 -3.34375 1.097656 -3.300781 1.015625 -3.21875 C 0.941406 -3.144531 0.90625 -3.023438 0.90625 -2.859375 L 0.90625 -2.65625 L 1.453125 -2.65625 Z M 1.453125 -2.296875 "/></g></g></g><g fill="#404141" fill-opacity="1"><g transform="translate(118.695639, 51.213299)"><g><path d="M 2.734375 -2.65625 L 2.734375 0 L 2.296875 0 L 2.296875 -0.390625 C 2.210938 -0.253906 2.09375 -0.148438 1.9375 -0.078125 C 1.789062 -0.00390625 1.625 0.03125 1.4375 0.03125 C 1.226562 0.03125 1.039062 -0.0078125 0.875 -0.09375 C 0.71875 -0.175781 0.585938 -0.300781 0.484375 -0.46875 C 0.390625 -0.644531 0.34375 -0.859375 0.34375 -1.109375 L 0.34375 -2.65625 L 0.78125 -2.65625 L 0.78125 -1.15625 C 0.78125 -0.894531 0.847656 -0.691406 0.984375 -0.546875 C 1.117188 -0.410156 1.300781 -0.34375 1.53125 -0.34375 C 1.769531 -0.34375 1.957031 -0.414062 2.09375 -0.5625 C 2.226562 -0.707031 2.296875 -0.921875 2.296875 -1.203125 L 2.296875 -2.65625 Z M 2.734375 -2.65625 "/></g></g></g><g fill="#404141" fill-opacity="1"><g transform="translate(121.805688, 51.213299)"><g><path d="M 0.90625 -2.296875 L 0.90625 -0.734375 C 0.90625 -0.597656 0.929688 -0.503906 0.984375 -0.453125 C 1.046875 -0.398438 1.144531 -0.375 1.28125 -0.375 L 1.609375 -0.375 L 1.609375 0 L 1.203125 0 C 0.960938 0 0.78125 -0.0546875 0.65625 -0.171875 C 0.53125 -0.285156 0.46875 -0.472656 0.46875 -0.734375 L 0.46875 -2.296875 L 0.125 -2.296875 L 0.125 -2.65625 L 0.46875 -2.65625 L 0.46875 -3.328125 L 0.90625 -3.328125 L 0.90625 -2.65625 L 1.609375 -2.65625 L 1.609375 -2.296875 Z M 0.90625 -2.296875 "/></g></g></g><g fill="#404141" fill-opacity="1"><g transform="translate(123.574526, 51.213299)"><g><path d="M 2.734375 -2.65625 L 2.734375 0 L 2.296875 0 L 2.296875 -0.390625 C 2.210938 -0.253906 2.09375 -0.148438 1.9375 -0.078125 C 1.789062 -0.00390625 1.625 0.03125 1.4375 0.03125 C 1.226562 0.03125 1.039062 -0.0078125 0.875 -0.09375 C 0.71875 -0.175781 0.585938 -0.300781 0.484375 -0.46875 C 0.390625 -0.644531 0.34375 -0.859375 0.34375 -1.109375 L 0.34375 -2.65625 L 0.78125 -2.65625 L 0.78125 -1.15625 C 0.78125 -0.894531 0.847656 -0.691406 0.984375 -0.546875 C 1.117188 -0.410156 1.300781 -0.34375 1.53125 -0.34375 C 1.769531 -0.34375 1.957031 -0.414062 2.09375 -0.5625 C 2.226562 -0.707031 2.296875 -0.921875 2.296875 -1.203125 L 2.296875 -2.65625 Z M 2.734375 -2.65625 "/></g></g></g><g fill="#404141" fill-opacity="1"><g transform="translate(126.684574, 51.213299)"><g><path d="M 0.8125 -2.234375 C 0.894531 -2.378906 1.003906 -2.492188 1.140625 -2.578125 C 1.285156 -2.671875 1.460938 -2.71875 1.671875 -2.71875 L 1.671875 -2.25 L 1.5625 -2.25 C 1.0625 -2.25 0.8125 -1.984375 0.8125 -1.453125 L 0.8125 0 L 0.375 0 L 0.375 -2.65625 L 0.8125 -2.65625 Z M 0.8125 -2.234375 "/></g></g></g><g fill="#404141" fill-opacity="1"><g transform="translate(128.497148, 51.213299)"><g><path d="M 2.796875 -1.4375 C 2.796875 -1.351562 2.796875 -1.265625 2.796875 -1.171875 L 0.65625 -1.171875 C 0.675781 -0.898438 0.765625 -0.691406 0.921875 -0.546875 C 1.085938 -0.398438 1.289062 -0.328125 1.53125 -0.328125 C 1.71875 -0.328125 1.875 -0.367188 2 -0.453125 C 2.132812 -0.546875 2.226562 -0.671875 2.28125 -0.828125 L 2.75 -0.828125 C 2.675781 -0.566406 2.53125 -0.351562 2.3125 -0.1875 C 2.101562 -0.03125 1.84375 0.046875 1.53125 0.046875 C 1.269531 0.046875 1.039062 -0.0078125 0.84375 -0.125 C 0.644531 -0.238281 0.488281 -0.398438 0.375 -0.609375 C 0.257812 -0.816406 0.203125 -1.0625 0.203125 -1.34375 C 0.203125 -1.613281 0.257812 -1.851562 0.375 -2.0625 C 0.488281 -2.269531 0.644531 -2.425781 0.84375 -2.53125 C 1.039062 -2.644531 1.269531 -2.703125 1.53125 -2.703125 C 1.78125 -2.703125 2 -2.644531 2.1875 -2.53125 C 2.382812 -2.425781 2.535156 -2.273438 2.640625 -2.078125 C 2.742188 -1.890625 2.796875 -1.675781 2.796875 -1.4375 Z M 2.34375 -1.53125 C 2.34375 -1.695312 2.304688 -1.835938 2.234375 -1.953125 C 2.160156 -2.078125 2.054688 -2.171875 1.921875 -2.234375 C 1.796875 -2.296875 1.65625 -2.328125 1.5 -2.328125 C 1.28125 -2.328125 1.09375 -2.253906 0.9375 -2.109375 C 0.78125 -1.972656 0.691406 -1.78125 0.671875 -1.53125 Z M 2.34375 -1.53125 "/></g></g></g><g fill="#404141" fill-opacity="1"><g transform="translate(131.510005, 51.213299)"><g/></g></g><g fill="#404141" fill-opacity="1"><g transform="translate(132.80748, 51.213299)"><g><path d="M 0.203125 -1.34375 C 0.203125 -1.613281 0.257812 -1.847656 0.375 -2.046875 C 0.488281 -2.253906 0.640625 -2.414062 0.828125 -2.53125 C 1.023438 -2.644531 1.238281 -2.703125 1.46875 -2.703125 C 1.707031 -2.703125 1.910156 -2.648438 2.078125 -2.546875 C 2.253906 -2.453125 2.382812 -2.328125 2.46875 -2.171875 L 2.46875 -2.65625 L 2.90625 -2.65625 L 2.90625 0 L 2.46875 0 L 2.46875 -0.5 C 2.375 -0.34375 2.238281 -0.210938 2.0625 -0.109375 C 1.894531 -0.00390625 1.695312 0.046875 1.46875 0.046875 C 1.226562 0.046875 1.015625 -0.0078125 0.828125 -0.125 C 0.640625 -0.25 0.488281 -0.414062 0.375 -0.625 C 0.257812 -0.832031 0.203125 -1.070312 0.203125 -1.34375 Z M 2.46875 -1.34375 C 2.46875 -1.539062 2.425781 -1.710938 2.34375 -1.859375 C 2.257812 -2.003906 2.148438 -2.117188 2.015625 -2.203125 C 1.878906 -2.285156 1.726562 -2.328125 1.5625 -2.328125 C 1.394531 -2.328125 1.242188 -2.285156 1.109375 -2.203125 C 0.972656 -2.128906 0.863281 -2.015625 0.78125 -1.859375 C 0.695312 -1.710938 0.65625 -1.539062 0.65625 -1.34375 C 0.65625 -1.132812 0.695312 -0.953125 0.78125 -0.796875 C 0.863281 -0.648438 0.972656 -0.535156 1.109375 -0.453125 C 1.242188 -0.378906 1.394531 -0.34375 1.5625 -0.34375 C 1.726562 -0.34375 1.878906 -0.378906 2.015625 -0.453125 C 2.148438 -0.535156 2.257812 -0.648438 2.34375 -0.796875 C 2.425781 -0.953125 2.46875 -1.132812 2.46875 -1.34375 Z M 2.46875 -1.34375 "/></g></g></g><g fill="#404141" fill-opacity="1"><g transform="translate(136.092469, 51.213299)"><g><path d="M 1.671875 -2.71875 C 1.992188 -2.71875 2.253906 -2.617188 2.453125 -2.421875 C 2.660156 -2.222656 2.765625 -1.9375 2.765625 -1.5625 L 2.765625 0 L 2.328125 0 L 2.328125 -1.5 C 2.328125 -1.769531 2.257812 -1.972656 2.125 -2.109375 C 1.988281 -2.253906 1.804688 -2.328125 1.578125 -2.328125 C 1.347656 -2.328125 1.160156 -2.253906 1.015625 -2.109375 C 0.878906 -1.960938 0.8125 -1.75 0.8125 -1.46875 L 0.8125 0 L 0.375 0 L 0.375 -2.65625 L 0.8125 -2.65625 L 0.8125 -2.28125 C 0.90625 -2.414062 1.023438 -2.519531 1.171875 -2.59375 C 1.328125 -2.675781 1.492188 -2.71875 1.671875 -2.71875 Z M 1.671875 -2.71875 "/></g></g></g><g fill="#404141" fill-opacity="1"><g transform="translate(139.202517, 51.213299)"><g><path d="M 0.203125 -1.34375 C 0.203125 -1.613281 0.257812 -1.847656 0.375 -2.046875 C 0.488281 -2.253906 0.640625 -2.414062 0.828125 -2.53125 C 1.023438 -2.644531 1.242188 -2.703125 1.484375 -2.703125 C 1.679688 -2.703125 1.867188 -2.65625 2.046875 -2.5625 C 2.234375 -2.46875 2.375 -2.34375 2.46875 -2.1875 L 2.46875 -3.59375 L 2.90625 -3.59375 L 2.90625 0 L 2.46875 0 L 2.46875 -0.5 C 2.375 -0.34375 2.238281 -0.210938 2.0625 -0.109375 C 1.894531 -0.00390625 1.695312 0.046875 1.46875 0.046875 C 1.238281 0.046875 1.023438 -0.0078125 0.828125 -0.125 C 0.640625 -0.25 0.488281 -0.414062 0.375 -0.625 C 0.257812 -0.832031 0.203125 -1.070312 0.203125 -1.34375 Z M 2.46875 -1.34375 C 2.46875 -1.539062 2.425781 -1.710938 2.34375 -1.859375 C 2.257812 -2.003906 2.148438 -2.117188 2.015625 -2.203125 C 1.878906 -2.285156 1.726562 -2.328125 1.5625 -2.328125 C 1.394531 -2.328125 1.242188 -2.285156 1.109375 -2.203125 C 0.972656 -2.128906 0.863281 -2.015625 0.78125 -1.859375 C 0.695312 -1.710938 0.65625 -1.539062 0.65625 -1.34375 C 0.65625 -1.132812 0.695312 -0.953125 0.78125 -0.796875 C 0.863281 -0.648438 0.972656 -0.535156 1.109375 -0.453125 C 1.242188 -0.378906 1.394531 -0.34375 1.5625 -0.34375 C 1.726562 -0.34375 1.878906 -0.378906 2.015625 -0.453125 C 2.148438 -0.535156 2.257812 -0.648438 2.34375 -0.796875 C 2.425781 -0.953125 2.46875 -1.132812 2.46875 -1.34375 Z M 2.46875 -1.34375 "/></g></g></g><g fill="#404141" fill-opacity="1"><g transform="translate(142.487507, 51.213299)"><g/></g></g><g fill="#404141" fill-opacity="1"><g transform="translate(143.784982, 51.213299)"><g><path d="M 1.671875 -2.71875 C 1.992188 -2.71875 2.253906 -2.617188 2.453125 -2.421875 C 2.660156 -2.222656 2.765625 -1.9375 2.765625 -1.5625 L 2.765625 0 L 2.328125 0 L 2.328125 -1.5 C 2.328125 -1.769531 2.257812 -1.972656 2.125 -2.109375 C 1.988281 -2.253906 1.804688 -2.328125 1.578125 -2.328125 C 1.347656 -2.328125 1.160156 -2.253906 1.015625 -2.109375 C 0.878906 -1.960938 0.8125 -1.75 0.8125 -1.46875 L 0.8125 0 L 0.375 0 L 0.375 -2.65625 L 0.8125 -2.65625 L 0.8125 -2.28125 C 0.90625 -2.414062 1.023438 -2.519531 1.171875 -2.59375 C 1.328125 -2.675781 1.492188 -2.71875 1.671875 -2.71875 Z M 1.671875 -2.71875 "/></g></g></g><g fill="#404141" fill-opacity="1"><g transform="translate(146.89503, 51.213299)"><g><path d="M 1.53125 0.046875 C 1.28125 0.046875 1.050781 -0.0078125 0.84375 -0.125 C 0.644531 -0.238281 0.488281 -0.398438 0.375 -0.609375 C 0.257812 -0.816406 0.203125 -1.0625 0.203125 -1.34375 C 0.203125 -1.613281 0.257812 -1.851562 0.375 -2.0625 C 0.5 -2.269531 0.660156 -2.425781 0.859375 -2.53125 C 1.066406 -2.644531 1.300781 -2.703125 1.5625 -2.703125 C 1.8125 -2.703125 2.035156 -2.644531 2.234375 -2.53125 C 2.441406 -2.425781 2.601562 -2.269531 2.71875 -2.0625 C 2.84375 -1.851562 2.90625 -1.613281 2.90625 -1.34375 C 2.90625 -1.0625 2.84375 -0.816406 2.71875 -0.609375 C 2.59375 -0.398438 2.425781 -0.238281 2.21875 -0.125 C 2.019531 -0.0078125 1.789062 0.046875 1.53125 0.046875 Z M 1.53125 -0.34375 C 1.695312 -0.34375 1.847656 -0.378906 1.984375 -0.453125 C 2.117188 -0.523438 2.226562 -0.632812 2.3125 -0.78125 C 2.40625 -0.9375 2.453125 -1.125 2.453125 -1.34375 C 2.453125 -1.550781 2.410156 -1.726562 2.328125 -1.875 C 2.242188 -2.03125 2.128906 -2.144531 1.984375 -2.21875 C 1.847656 -2.289062 1.703125 -2.328125 1.546875 -2.328125 C 1.390625 -2.328125 1.242188 -2.289062 1.109375 -2.21875 C 0.972656 -2.144531 0.863281 -2.03125 0.78125 -1.875 C 0.695312 -1.726562 0.65625 -1.550781 0.65625 -1.34375 C 0.65625 -1.125 0.695312 -0.9375 0.78125 -0.78125 C 0.863281 -0.632812 0.96875 -0.523438 1.09375 -0.453125 C 1.226562 -0.378906 1.375 -0.34375 1.53125 -0.34375 Z M 1.53125 -0.34375 "/></g></g></g><g fill="#404141" fill-opacity="1"><g transform="translate(150.005078, 51.213299)"><g><path d="M 0.90625 -2.296875 L 0.90625 -0.734375 C 0.90625 -0.597656 0.929688 -0.503906 0.984375 -0.453125 C 1.046875 -0.398438 1.144531 -0.375 1.28125 -0.375 L 1.609375 -0.375 L 1.609375 0 L 1.203125 0 C 0.960938 0 0.78125 -0.0546875 0.65625 -0.171875 C 0.53125 -0.285156 0.46875 -0.472656 0.46875 -0.734375 L 0.46875 -2.296875 L 0.125 -2.296875 L 0.125 -2.65625 L 0.46875 -2.65625 L 0.46875 -3.328125 L 0.90625 -3.328125 L 0.90625 -2.65625 L 1.609375 -2.65625 L 1.609375 -2.296875 Z M 0.90625 -2.296875 "/></g></g></g><g fill="#404141" fill-opacity="1"><g transform="translate(151.773916, 51.213299)"><g/></g></g><g fill="#404141" fill-opacity="1"><g transform="translate(153.07139, 51.213299)"><g><path d="M 0.203125 -1.34375 C 0.203125 -1.613281 0.257812 -1.847656 0.375 -2.046875 C 0.488281 -2.253906 0.640625 -2.414062 0.828125 -2.53125 C 1.023438 -2.644531 1.238281 -2.703125 1.46875 -2.703125 C 1.707031 -2.703125 1.910156 -2.648438 2.078125 -2.546875 C 2.253906 -2.453125 2.382812 -2.328125 2.46875 -2.171875 L 2.46875 -2.65625 L 2.90625 -2.65625 L 2.90625 0 L 2.46875 0 L 2.46875 -0.5 C 2.375 -0.34375 2.238281 -0.210938 2.0625 -0.109375 C 1.894531 -0.00390625 1.695312 0.046875 1.46875 0.046875 C 1.226562 0.046875 1.015625 -0.0078125 0.828125 -0.125 C 0.640625 -0.25 0.488281 -0.414062 0.375 -0.625 C 0.257812 -0.832031 0.203125 -1.070312 0.203125 -1.34375 Z M 2.46875 -1.34375 C 2.46875 -1.539062 2.425781 -1.710938 2.34375 -1.859375 C 2.257812 -2.003906 2.148438 -2.117188 2.015625 -2.203125 C 1.878906 -2.285156 1.726562 -2.328125 1.5625 -2.328125 C 1.394531 -2.328125 1.242188 -2.285156 1.109375 -2.203125 C 0.972656 -2.128906 0.863281 -2.015625 0.78125 -1.859375 C 0.695312 -1.710938 0.65625 -1.539062 0.65625 -1.34375 C 0.65625 -1.132812 0.695312 -0.953125 0.78125 -0.796875 C 0.863281 -0.648438 0.972656 -0.535156 1.109375 -0.453125 C 1.242188 -0.378906 1.394531 -0.34375 1.5625 -0.34375 C 1.726562 -0.34375 1.878906 -0.378906 2.015625 -0.453125 C 2.148438 -0.535156 2.257812 -0.648438 2.34375 -0.796875 C 2.425781 -0.953125 2.46875 -1.132812 2.46875 -1.34375 Z M 2.46875 -1.34375 "/></g></g></g><g fill="#404141" fill-opacity="1"><g transform="translate(156.35638, 51.213299)"><g/></g></g><g fill="#404141" fill-opacity="1"><g transform="translate(157.653855, 51.213299)"><g><path d="M 1.3125 0.046875 C 1.113281 0.046875 0.929688 0.0078125 0.765625 -0.0625 C 0.609375 -0.132812 0.484375 -0.234375 0.390625 -0.359375 C 0.296875 -0.484375 0.242188 -0.625 0.234375 -0.78125 L 0.6875 -0.78125 C 0.695312 -0.644531 0.757812 -0.535156 0.875 -0.453125 C 0.988281 -0.367188 1.132812 -0.328125 1.3125 -0.328125 C 1.476562 -0.328125 1.609375 -0.363281 1.703125 -0.4375 C 1.804688 -0.507812 1.859375 -0.601562 1.859375 -0.71875 C 1.859375 -0.84375 1.804688 -0.929688 1.703125 -0.984375 C 1.597656 -1.035156 1.4375 -1.09375 1.21875 -1.15625 C 1.019531 -1.207031 0.859375 -1.257812 0.734375 -1.3125 C 0.609375 -1.363281 0.5 -1.441406 0.40625 -1.546875 C 0.320312 -1.648438 0.28125 -1.789062 0.28125 -1.96875 C 0.28125 -2.101562 0.320312 -2.222656 0.40625 -2.328125 C 0.488281 -2.441406 0.601562 -2.53125 0.75 -2.59375 C 0.894531 -2.664062 1.066406 -2.703125 1.265625 -2.703125 C 1.554688 -2.703125 1.789062 -2.628906 1.96875 -2.484375 C 2.15625 -2.335938 2.253906 -2.132812 2.265625 -1.875 L 1.828125 -1.875 C 1.816406 -2.007812 1.757812 -2.117188 1.65625 -2.203125 C 1.550781 -2.285156 1.414062 -2.328125 1.25 -2.328125 C 1.082031 -2.328125 0.953125 -2.289062 0.859375 -2.21875 C 0.765625 -2.15625 0.71875 -2.070312 0.71875 -1.96875 C 0.71875 -1.875 0.742188 -1.796875 0.796875 -1.734375 C 0.859375 -1.679688 0.929688 -1.640625 1.015625 -1.609375 C 1.109375 -1.578125 1.226562 -1.539062 1.375 -1.5 C 1.570312 -1.445312 1.726562 -1.394531 1.84375 -1.34375 C 1.96875 -1.289062 2.070312 -1.210938 2.15625 -1.109375 C 2.238281 -1.015625 2.28125 -0.882812 2.28125 -0.71875 C 2.28125 -0.570312 2.238281 -0.441406 2.15625 -0.328125 C 2.082031 -0.210938 1.972656 -0.117188 1.828125 -0.046875 C 1.679688 0.015625 1.507812 0.046875 1.3125 0.046875 Z M 1.3125 0.046875 "/></g></g></g><g fill="#404141" fill-opacity="1"><g transform="translate(160.190479, 51.213299)"><g><path d="M 0.8125 -2.171875 C 0.90625 -2.328125 1.035156 -2.453125 1.203125 -2.546875 C 1.378906 -2.648438 1.582031 -2.703125 1.8125 -2.703125 C 2.050781 -2.703125 2.265625 -2.644531 2.453125 -2.53125 C 2.648438 -2.414062 2.800781 -2.253906 2.90625 -2.046875 C 3.019531 -1.847656 3.078125 -1.613281 3.078125 -1.34375 C 3.078125 -1.070312 3.019531 -0.832031 2.90625 -0.625 C 2.800781 -0.414062 2.648438 -0.25 2.453125 -0.125 C 2.265625 -0.0078125 2.050781 0.046875 1.8125 0.046875 C 1.582031 0.046875 1.378906 -0.00390625 1.203125 -0.109375 C 1.035156 -0.210938 0.90625 -0.335938 0.8125 -0.484375 L 0.8125 1.265625 L 0.375 1.265625 L 0.375 -2.65625 L 0.8125 -2.65625 Z M 2.625 -1.34375 C 2.625 -1.539062 2.582031 -1.710938 2.5 -1.859375 C 2.414062 -2.015625 2.304688 -2.128906 2.171875 -2.203125 C 2.035156 -2.285156 1.882812 -2.328125 1.71875 -2.328125 C 1.5625 -2.328125 1.410156 -2.285156 1.265625 -2.203125 C 1.128906 -2.117188 1.019531 -2 0.9375 -1.84375 C 0.851562 -1.695312 0.8125 -1.53125 0.8125 -1.34375 C 0.8125 -1.132812 0.851562 -0.953125 0.9375 -0.796875 C 1.019531 -0.648438 1.128906 -0.535156 1.265625 -0.453125 C 1.410156 -0.378906 1.5625 -0.34375 1.71875 -0.34375 C 1.882812 -0.34375 2.035156 -0.378906 2.171875 -0.453125 C 2.304688 -0.535156 2.414062 -0.648438 2.5 -0.796875 C 2.582031 -0.953125 2.625 -1.132812 2.625 -1.34375 Z M 2.625 -1.34375 "/></g></g></g><g fill="#404141" fill-opacity="1"><g transform="translate(163.475469, 51.213299)"><g><path d="M 2.796875 -1.4375 C 2.796875 -1.351562 2.796875 -1.265625 2.796875 -1.171875 L 0.65625 -1.171875 C 0.675781 -0.898438 0.765625 -0.691406 0.921875 -0.546875 C 1.085938 -0.398438 1.289062 -0.328125 1.53125 -0.328125 C 1.71875 -0.328125 1.875 -0.367188 2 -0.453125 C 2.132812 -0.546875 2.226562 -0.671875 2.28125 -0.828125 L 2.75 -0.828125 C 2.675781 -0.566406 2.53125 -0.351562 2.3125 -0.1875 C 2.101562 -0.03125 1.84375 0.046875 1.53125 0.046875 C 1.269531 0.046875 1.039062 -0.0078125 0.84375 -0.125 C 0.644531 -0.238281 0.488281 -0.398438 0.375 -0.609375 C 0.257812 -0.816406 0.203125 -1.0625 0.203125 -1.34375 C 0.203125 -1.613281 0.257812 -1.851562 0.375 -2.0625 C 0.488281 -2.269531 0.644531 -2.425781 0.84375 -2.53125 C 1.039062 -2.644531 1.269531 -2.703125 1.53125 -2.703125 C 1.78125 -2.703125 2 -2.644531 2.1875 -2.53125 C 2.382812 -2.425781 2.535156 -2.273438 2.640625 -2.078125 C 2.742188 -1.890625 2.796875 -1.675781 2.796875 -1.4375 Z M 2.34375 -1.53125 C 2.34375 -1.695312 2.304688 -1.835938 2.234375 -1.953125 C 2.160156 -2.078125 2.054688 -2.171875 1.921875 -2.234375 C 1.796875 -2.296875 1.65625 -2.328125 1.5 -2.328125 C 1.28125 -2.328125 1.09375 -2.253906 0.9375 -2.109375 C 0.78125 -1.972656 0.691406 -1.78125 0.671875 -1.53125 Z M 2.34375 -1.53125 "/></g></g></g><g fill="#404141" fill-opacity="1"><g transform="translate(166.488333, 51.213299)"><g><path d="M 0.203125 -1.34375 C 0.203125 -1.613281 0.257812 -1.847656 0.375 -2.046875 C 0.488281 -2.253906 0.640625 -2.414062 0.828125 -2.53125 C 1.023438 -2.644531 1.25 -2.703125 1.5 -2.703125 C 1.832031 -2.703125 2.101562 -2.625 2.3125 -2.46875 C 2.53125 -2.3125 2.671875 -2.09375 2.734375 -1.8125 L 2.265625 -1.8125 C 2.210938 -1.96875 2.117188 -2.09375 1.984375 -2.1875 C 1.859375 -2.28125 1.695312 -2.328125 1.5 -2.328125 C 1.25 -2.328125 1.046875 -2.238281 0.890625 -2.0625 C 0.734375 -1.894531 0.65625 -1.65625 0.65625 -1.34375 C 0.65625 -1.019531 0.734375 -0.769531 0.890625 -0.59375 C 1.046875 -0.414062 1.25 -0.328125 1.5 -0.328125 C 1.695312 -0.328125 1.859375 -0.375 1.984375 -0.46875 C 2.117188 -0.5625 2.210938 -0.691406 2.265625 -0.859375 L 2.734375 -0.859375 C 2.660156 -0.585938 2.515625 -0.367188 2.296875 -0.203125 C 2.085938 -0.0351562 1.820312 0.046875 1.5 0.046875 C 1.25 0.046875 1.023438 -0.0078125 0.828125 -0.125 C 0.640625 -0.238281 0.488281 -0.398438 0.375 -0.609375 C 0.257812 -0.816406 0.203125 -1.0625 0.203125 -1.34375 Z M 0.203125 -1.34375 "/></g></g></g><g fill="#404141" fill-opacity="1"><g transform="translate(169.438021, 51.213299)"><g><path d="M 0.90625 -2.296875 L 0.90625 -0.734375 C 0.90625 -0.597656 0.929688 -0.503906 0.984375 -0.453125 C 1.046875 -0.398438 1.144531 -0.375 1.28125 -0.375 L 1.609375 -0.375 L 1.609375 0 L 1.203125 0 C 0.960938 0 0.78125 -0.0546875 0.65625 -0.171875 C 0.53125 -0.285156 0.46875 -0.472656 0.46875 -0.734375 L 0.46875 -2.296875 L 0.125 -2.296875 L 0.125 -2.65625 L 0.46875 -2.65625 L 0.46875 -3.328125 L 0.90625 -3.328125 L 0.90625 -2.65625 L 1.609375 -2.65625 L 1.609375 -2.296875 Z M 0.90625 -2.296875 "/></g></g></g><g fill="#404141" fill-opacity="1"><g transform="translate(171.206866, 51.213299)"><g><path d="M 0.203125 -1.34375 C 0.203125 -1.613281 0.257812 -1.847656 0.375 -2.046875 C 0.488281 -2.253906 0.640625 -2.414062 0.828125 -2.53125 C 1.023438 -2.644531 1.238281 -2.703125 1.46875 -2.703125 C 1.707031 -2.703125 1.910156 -2.648438 2.078125 -2.546875 C 2.253906 -2.453125 2.382812 -2.328125 2.46875 -2.171875 L 2.46875 -2.65625 L 2.90625 -2.65625 L 2.90625 0 L 2.46875 0 L 2.46875 -0.5 C 2.375 -0.34375 2.238281 -0.210938 2.0625 -0.109375 C 1.894531 -0.00390625 1.695312 0.046875 1.46875 0.046875 C 1.226562 0.046875 1.015625 -0.0078125 0.828125 -0.125 C 0.640625 -0.25 0.488281 -0.414062 0.375 -0.625 C 0.257812 -0.832031 0.203125 -1.070312 0.203125 -1.34375 Z M 2.46875 -1.34375 C 2.46875 -1.539062 2.425781 -1.710938 2.34375 -1.859375 C 2.257812 -2.003906 2.148438 -2.117188 2.015625 -2.203125 C 1.878906 -2.285156 1.726562 -2.328125 1.5625 -2.328125 C 1.394531 -2.328125 1.242188 -2.285156 1.109375 -2.203125 C 0.972656 -2.128906 0.863281 -2.015625 0.78125 -1.859375 C 0.695312 -1.710938 0.65625 -1.539062 0.65625 -1.34375 C 0.65625 -1.132812 0.695312 -0.953125 0.78125 -0.796875 C 0.863281 -0.648438 0.972656 -0.535156 1.109375 -0.453125 C 1.242188 -0.378906 1.394531 -0.34375 1.5625 -0.34375 C 1.726562 -0.34375 1.878906 -0.378906 2.015625 -0.453125 C 2.148438 -0.535156 2.257812 -0.648438 2.34375 -0.796875 C 2.425781 -0.953125 2.46875 -1.132812 2.46875 -1.34375 Z M 2.46875 -1.34375 "/></g></g></g><g fill="#404141" fill-opacity="1"><g transform="translate(174.491856, 51.213299)"><g><path d="M 0.90625 -2.296875 L 0.90625 -0.734375 C 0.90625 -0.597656 0.929688 -0.503906 0.984375 -0.453125 C 1.046875 -0.398438 1.144531 -0.375 1.28125 -0.375 L 1.609375 -0.375 L 1.609375 0 L 1.203125 0 C 0.960938 0 0.78125 -0.0546875 0.65625 -0.171875 C 0.53125 -0.285156 0.46875 -0.472656 0.46875 -0.734375 L 0.46875 -2.296875 L 0.125 -2.296875 L 0.125 -2.65625 L 0.46875 -2.65625 L 0.46875 -3.328125 L 0.90625 -3.328125 L 0.90625 -2.65625 L 1.609375 -2.65625 L 1.609375 -2.296875 Z M 0.90625 -2.296875 "/></g></g></g><g fill="#404141" fill-opacity="1"><g transform="translate(176.2607, 51.213299)"><g><path d="M 1.53125 0.046875 C 1.28125 0.046875 1.050781 -0.0078125 0.84375 -0.125 C 0.644531 -0.238281 0.488281 -0.398438 0.375 -0.609375 C 0.257812 -0.816406 0.203125 -1.0625 0.203125 -1.34375 C 0.203125 -1.613281 0.257812 -1.851562 0.375 -2.0625 C 0.5 -2.269531 0.660156 -2.425781 0.859375 -2.53125 C 1.066406 -2.644531 1.300781 -2.703125 1.5625 -2.703125 C 1.8125 -2.703125 2.035156 -2.644531 2.234375 -2.53125 C 2.441406 -2.425781 2.601562 -2.269531 2.71875 -2.0625 C 2.84375 -1.851562 2.90625 -1.613281 2.90625 -1.34375 C 2.90625 -1.0625 2.84375 -0.816406 2.71875 -0.609375 C 2.59375 -0.398438 2.425781 -0.238281 2.21875 -0.125 C 2.019531 -0.0078125 1.789062 0.046875 1.53125 0.046875 Z M 1.53125 -0.34375 C 1.695312 -0.34375 1.847656 -0.378906 1.984375 -0.453125 C 2.117188 -0.523438 2.226562 -0.632812 2.3125 -0.78125 C 2.40625 -0.9375 2.453125 -1.125 2.453125 -1.34375 C 2.453125 -1.550781 2.410156 -1.726562 2.328125 -1.875 C 2.242188 -2.03125 2.128906 -2.144531 1.984375 -2.21875 C 1.847656 -2.289062 1.703125 -2.328125 1.546875 -2.328125 C 1.390625 -2.328125 1.242188 -2.289062 1.109375 -2.21875 C 0.972656 -2.144531 0.863281 -2.03125 0.78125 -1.875 C 0.695312 -1.726562 0.65625 -1.550781 0.65625 -1.34375 C 0.65625 -1.125 0.695312 -0.9375 0.78125 -0.78125 C 0.863281 -0.632812 0.96875 -0.523438 1.09375 -0.453125 C 1.226562 -0.378906 1.375 -0.34375 1.53125 -0.34375 Z M 1.53125 -0.34375 "/></g></g></g><g fill="#404141" fill-opacity="1"><g transform="translate(179.370748, 51.213299)"><g><path d="M 0.8125 -2.234375 C 0.894531 -2.378906 1.003906 -2.492188 1.140625 -2.578125 C 1.285156 -2.671875 1.460938 -2.71875 1.671875 -2.71875 L 1.671875 -2.25 L 1.5625 -2.25 C 1.0625 -2.25 0.8125 -1.984375 0.8125 -1.453125 L 0.8125 0 L 0.375 0 L 0.375 -2.65625 L 0.8125 -2.65625 Z M 0.8125 -2.234375 "/></g></g></g><g fill="#404141" fill-opacity="1"><g transform="translate(181.183316, 51.213299)"><g><path d="M 0.953125 -3.390625 L 0.890625 -0.953125 L 0.53125 -0.953125 L 0.46875 -3.390625 Z M 0.734375 0.03125 C 0.648438 0.03125 0.578125 0.00390625 0.515625 -0.046875 C 0.453125 -0.109375 0.421875 -0.179688 0.421875 -0.265625 C 0.421875 -0.359375 0.453125 -0.429688 0.515625 -0.484375 C 0.578125 -0.546875 0.648438 -0.578125 0.734375 -0.578125 C 0.804688 -0.578125 0.867188 -0.546875 0.921875 -0.484375 C 0.984375 -0.429688 1.015625 -0.359375 1.015625 -0.265625 C 1.015625 -0.179688 0.984375 -0.109375 0.921875 -0.046875 C 0.867188 0.00390625 0.804688 0.03125 0.734375 0.03125 Z M 0.734375 0.03125 "/></g></g></g><path fill="#1866d2" d="M 1.269531 6.078125 L 50.019531 6.078125 L 50.019531 54.828125 L 1.269531 54.828125 L 1.269531 6.078125 " fill-opacity="1" fill-rule="nonzero"/><g fill="#ffffff" fill-opacity="1"><g transform="translate(12.79773, 44.712336)"><g><path d="M 10.453125 -22.328125 L 10.453125 -17.34375 L 22.53125 -17.34375 L 22.53125 -10.9375 L 10.453125 -10.9375 L 10.453125 -5.671875 L 23.421875 -5.671875 L 23.421875 1 L 3.140625 1 L 3.140625 -29.015625 L 23.421875 -29.015625 L 23.421875 -22.328125 Z M 10.453125 -22.328125 "/></g></g></g></svg>